<svg width="100" height="100" viewBox="0 0 100 100" fill="none" xmlns="http://www.w3.org/2000/svg">
<path fill-rule="evenodd" clip-rule="evenodd" d="M15.625 71.875C15.625 70.1491 17.0241 68.75 18.75 68.75H81.25C82.9759 68.75 84.375 70.1491 84.375 71.875C84.375 73.6009 82.9759 75 81.25 75H18.75C17.0241 75 15.625 73.6009 15.625 71.875Z" fill="white"/>
<path fill-rule="evenodd" clip-rule="evenodd" d="M15.625 46.875C15.625 45.1491 17.0241 43.75 18.75 43.75H81.25C82.9759 43.75 84.375 45.1491 84.375 46.875C84.375 48.6009 82.9759 50 81.25 50H18.75C17.0241 50 15.625 48.6009 15.625 46.875Z" fill="white"/>
<path fill-rule="evenodd" clip-rule="evenodd" d="M15.625 21.875C15.625 20.1491 17.0241 18.75 18.75 18.75H81.25C82.9759 18.75 84.375 20.1491 84.375 21.875C84.375 23.6009 82.9759 25 81.25 25H18.75C17.0241 25 15.625 23.6009 15.625 21.875Z" fill="white"/>
</svg>
