<svg width="100" height="100" viewBox="0 0 100 100" fill="none" xmlns="http://www.w3.org/2000/svg">
<path d="M50.0047 0C36.4254 0 34.7212 0.0593766 29.3878 0.302087C24.0648 0.54584 20.4315 1.38856 17.2523 2.62503C13.9637 3.90212 11.1741 5.61048 8.39488 8.39071C5.6136 11.1699 3.90525 13.9595 2.62398 17.2471C1.38439 20.4273 0.54063 24.0617 0.301044 29.3826C0.0625002 34.716 0 36.4212 0 50.0005C0 63.5798 0.0604183 65.2788 0.302087 70.6122C0.546882 75.9352 1.3896 79.5685 2.62503 82.7477C3.90317 86.0363 5.61152 88.8259 8.39175 91.6051C11.1699 94.3864 13.9595 96.0989 17.246 97.376C20.4273 98.6125 24.0617 99.4552 29.3836 99.699C34.717 99.9417 36.4202 100.001 49.9984 100.001C63.5788 100.001 65.2778 99.9417 70.6112 99.699C75.9341 99.4552 79.5717 98.6125 82.7529 97.376C86.0405 96.0989 88.8259 94.3864 91.6041 91.6051C94.3854 88.8259 96.0937 86.0363 97.375 82.7488C98.6041 79.5685 99.4479 75.9341 99.6979 70.6132C99.9375 65.2798 100 63.5798 100 50.0005C100 36.4212 99.9375 34.717 99.6979 29.3836C99.4479 24.0607 98.6041 20.4273 97.375 17.2481C96.0937 13.9595 94.3854 11.1699 91.6041 8.39071C88.8228 5.60943 86.0415 3.90108 82.7498 2.62503C79.5623 1.38856 75.9268 0.54584 70.6039 0.302087C65.2705 0.0593766 63.5725 0 49.9891 0H50.0047ZM45.5192 9.01051C46.8505 9.00843 48.3359 9.01051 50.0047 9.01051C63.3548 9.01051 64.9371 9.05843 70.2091 9.29801C75.0841 9.52093 77.73 10.3355 79.4925 11.0199C81.8258 11.9262 83.4894 13.0095 85.2384 14.7595C86.9884 16.5095 88.0717 18.1762 88.9801 20.5096C89.6645 22.27 90.4801 24.9159 90.702 29.7909C90.9416 35.0618 90.9937 36.6452 90.9937 49.9891C90.9937 63.3329 90.9416 64.9163 90.702 70.1872C90.4791 75.0622 89.6645 77.7081 88.9801 79.4685C88.0738 81.8019 86.9884 83.4634 85.2384 85.2123C83.4884 86.9624 81.8269 88.0457 79.4925 88.952C77.7321 89.6395 75.0841 90.452 70.2091 90.6749C64.9382 90.9145 63.3548 90.9666 50.0047 90.9666C36.6535 90.9666 35.0712 90.9145 29.8003 90.6749C24.9253 90.4499 22.2794 89.6353 20.5158 88.9509C18.1825 88.0447 16.5158 86.9613 14.7658 85.2113C13.0158 83.4613 11.9324 81.7988 11.0241 79.4644C10.3397 77.7039 9.52406 75.0581 9.30218 70.183C9.06259 64.9121 9.01468 63.3288 9.01468 49.9766C9.01468 36.6243 9.06259 35.0493 9.30218 29.7784C9.5251 24.9034 10.3397 22.2575 11.0241 20.495C11.9303 18.1616 13.0158 16.495 14.7658 14.7449C16.5158 12.9949 18.1825 11.9116 20.5158 11.0032C22.2784 10.3157 24.9253 9.50322 29.8003 9.27926C34.4129 9.07093 36.2004 9.00843 45.5192 8.99801V9.01051ZM76.6945 17.3127C73.382 17.3127 70.6945 19.9971 70.6945 23.3107C70.6945 26.6232 73.382 29.3107 76.6945 29.3107C80.0071 29.3107 82.6946 26.6232 82.6946 23.3107C82.6946 19.9981 80.0071 17.3106 76.6945 17.3106V17.3127ZM50.0047 24.3232C35.8243 24.3232 24.3273 35.8202 24.3273 50.0005C24.3273 64.1809 35.8243 75.6727 50.0047 75.6727C64.185 75.6727 75.6779 64.1809 75.6779 50.0005C75.6779 35.8202 64.184 24.3232 50.0036 24.3232H50.0047ZM50.0047 33.3337C59.2089 33.3337 66.6715 40.7952 66.6715 50.0005C66.6715 59.2048 59.2089 66.6674 50.0047 66.6674C40.7994 66.6674 33.3378 59.2048 33.3378 50.0005C33.3378 40.7952 40.7994 33.3337 50.0047 33.3337Z" fill="white"/>
</svg>
