<svg width="100" height="100" viewBox="0 0 100 100" fill="none" xmlns="http://www.w3.org/2000/svg">
<path d="M49.9995 0C77.571 0 100 18.202 100 40.5755C100 49.5299 96.5292 57.5938 89.2829 65.5398C78.793 77.6141 55.3365 92.3205 49.9995 94.5691C44.8133 96.755 45.4123 93.3388 45.6496 91.9851C45.6564 91.9462 45.6629 91.9091 45.669 91.8738C45.7955 91.1223 46.3821 87.5941 46.3821 87.5941C46.5508 86.3173 46.7253 84.3371 46.2211 83.0728C45.6604 81.681 43.4443 80.9583 41.8158 80.6075C17.788 77.431 0 60.6332 0 40.5755C0 18.202 22.4319 0 49.9995 0ZM31.3868 48.0392H21.8573V30.7372C21.8573 30.1995 21.4212 29.7634 20.8844 29.7634H17.3763C16.8385 29.7634 16.4024 30.1995 16.4024 30.7372V52.5221C16.4024 52.7838 16.5069 53.0206 16.6746 53.195L16.6804 53.202L16.6881 53.2094L16.7024 53.2228C16.8778 53.3915 17.1136 53.495 17.3753 53.495H31.3868C31.9245 53.495 32.3587 53.0579 32.3587 52.5202V49.0131C32.3587 48.4753 31.9245 48.0392 31.3868 48.0392ZM36.3337 29.7639C35.796 29.7639 35.3589 30.2001 35.3589 30.7359V52.5227C35.3589 53.0595 35.796 53.4946 36.3337 53.4946H39.8409C40.3786 53.4946 40.8147 53.0595 40.8147 52.5227V30.7359C40.8147 30.2001 40.3786 29.7639 39.8409 29.7639H36.3337ZM60.4736 29.7639C59.9358 29.7639 59.4997 30.2001 59.4997 30.7359V43.6795L49.5159 30.1962C49.4929 30.1617 49.467 30.1291 49.4402 30.0975L49.4335 30.0917C49.4143 30.0697 49.3951 30.0505 49.375 30.0314L49.3568 30.0151C49.3405 29.9997 49.3233 29.9853 49.305 29.9719C49.2994 29.9663 49.2933 29.9617 49.287 29.957L49.2801 29.9518L49.2477 29.9293L49.2293 29.9173C49.2197 29.9106 49.2102 29.9048 49.1996 29.9C49.1824 29.8895 49.1651 29.879 49.1479 29.8703L49.1363 29.8647L49.1171 29.8559C49.0989 29.8473 49.0807 29.8387 49.0616 29.832L49.03 29.8205C49.0108 29.8138 48.9916 29.8071 48.9715 29.8023L48.9541 29.7972L48.9379 29.7927L48.8823 29.7802L48.8411 29.7754L48.827 29.7729L48.8023 29.77L48.7894 29.7687L48.756 29.7666L48.7395 29.7659L48.705 29.7639H45.1988C44.6611 29.7639 44.224 30.2001 44.224 30.7359V52.5227C44.224 53.0595 44.6611 53.4946 45.1988 53.4946H48.705C49.2437 53.4946 49.6798 53.0595 49.6798 52.5227V39.5829L59.6761 53.0834C59.7451 53.1812 59.8304 53.2608 59.9234 53.324L59.933 53.3317L59.9934 53.3681C60.0029 53.3739 60.0116 53.3777 60.0211 53.3825C60.0355 53.3911 60.0518 53.3988 60.0672 53.4055L60.1151 53.4256L60.1438 53.4362C60.1668 53.4448 60.1879 53.4515 60.21 53.4582C60.2148 53.4582 60.2196 53.4601 60.2243 53.4611C60.3039 53.4822 60.3873 53.4946 60.4736 53.4946H63.9807C64.5194 53.4946 64.9546 53.0595 64.9546 52.5227V30.7359C64.9546 30.2001 64.5194 29.7639 63.9807 29.7639H60.4736ZM84.3205 34.2453V30.7382C84.3205 30.2004 83.8863 29.7634 83.3486 29.7634H69.3362C69.0736 29.7634 68.8368 29.8688 68.6614 30.0385L68.6564 30.0428L68.6499 30.049L68.6346 30.0663C68.4678 30.2407 68.3643 30.4765 68.3643 30.7372V52.5221C68.3643 52.7838 68.4688 53.0206 68.6365 53.195C68.6403 53.1998 68.6451 53.2056 68.6499 53.2094C68.6537 53.2142 68.6595 53.219 68.6643 53.2228C68.8387 53.3905 69.0755 53.495 69.3362 53.495H83.3486C83.8863 53.495 84.3205 53.0579 84.3205 52.5212V49.0131C84.3205 48.4763 83.8863 48.0392 83.3486 48.0392H73.8201V44.3566H83.3486C83.8863 44.3566 84.3205 43.9205 84.3205 43.3828V39.8756C84.3205 39.3379 83.8863 38.9008 83.3486 38.9008H73.8201V35.2192H83.3486C83.8863 35.2192 84.3205 34.784 84.3205 34.2453Z" fill="white"/>
</svg>
