<svg width="100" height="100" viewBox="0 0 100 100" fill="none" xmlns="http://www.w3.org/2000/svg">
<g clip-path="url(#clip0_346_2029)">
<path fill-rule="evenodd" clip-rule="evenodd" d="M50 93.75C61.6032 93.75 72.7312 89.1406 80.9359 80.9359C89.1406 72.7312 93.75 61.6032 93.75 50C93.75 38.3968 89.1406 27.2688 80.9359 19.0641C72.7312 10.8594 61.6032 6.25 50 6.25C38.3968 6.25 27.2688 10.8594 19.0641 19.0641C10.8594 27.2688 6.25 38.3968 6.25 50C6.25 61.6032 10.8594 72.7312 19.0641 80.9359C27.2688 89.1406 38.3968 93.75 50 93.75ZM50 100C63.2608 100 75.9785 94.7322 85.3553 85.3553C94.7322 75.9785 100 63.2608 100 50C100 36.7392 94.7322 24.0215 85.3553 14.6447C75.9785 5.26784 63.2608 0 50 0C36.7392 0 24.0215 5.26784 14.6447 14.6447C5.26784 24.0215 0 36.7392 0 50C0 63.2608 5.26784 75.9785 14.6447 85.3553C24.0215 94.7322 36.7392 100 50 100Z" fill="white"/>
<path fill-rule="evenodd" clip-rule="evenodd" d="M29.0431 29.0372C29.3334 28.7462 29.6782 28.5153 30.0579 28.3578C30.4375 28.2002 30.8445 28.1191 31.2556 28.1191C31.6666 28.1191 32.0736 28.2002 32.4533 28.3578C32.833 28.5153 33.1778 28.7462 33.4681 29.0372L50.0056 45.581L66.5431 29.0372C66.8336 28.7467 67.1786 28.5162 67.5582 28.359C67.9378 28.2017 68.3447 28.1208 68.7556 28.1208C69.1665 28.1208 69.5734 28.2017 69.953 28.359C70.3326 28.5162 70.6775 28.7467 70.9681 29.0372C71.2586 29.3278 71.4891 29.6727 71.6464 30.0523C71.8036 30.4319 71.8845 30.8388 71.8845 31.2497C71.8845 31.6606 71.8036 32.0675 71.6464 32.4471C71.4891 32.8267 71.2586 33.1717 70.9681 33.4622L54.4243 49.9997L70.9681 66.5372C71.2586 66.8278 71.4891 67.1727 71.6464 67.5523C71.8036 67.9319 71.8845 68.3388 71.8845 68.7497C71.8845 69.1606 71.8036 69.5675 71.6464 69.9471C71.4891 70.3267 71.2586 70.6717 70.9681 70.9622C70.6775 71.2528 70.3326 71.4833 69.953 71.6405C69.5734 71.7977 69.1665 71.8787 68.7556 71.8787C68.3447 71.8787 67.9378 71.7977 67.5582 71.6405C67.1786 71.4833 66.8336 71.2528 66.5431 70.9622L50.0056 54.4185L33.4681 70.9622C33.1775 71.2528 32.8326 71.4833 32.453 71.6405C32.0734 71.7977 31.6665 71.8787 31.2556 71.8787C30.8447 71.8787 30.4378 71.7977 30.0582 71.6405C29.6786 71.4833 29.3336 71.2528 29.0431 70.9622C28.7525 70.6717 28.5221 70.3267 28.3648 69.9471C28.2076 69.5675 28.1266 69.1606 28.1266 68.7497C28.1266 68.3388 28.2076 67.9319 28.3648 67.5523C28.5221 67.1727 28.7525 66.8278 29.0431 66.5372L45.5868 49.9997L29.0431 33.4622C28.7521 33.1719 28.5212 32.8271 28.3636 32.4474C28.2061 32.0678 28.125 31.6608 28.125 31.2497C28.125 30.8387 28.2061 30.4317 28.3636 30.052C28.5212 29.6724 28.7521 29.3275 29.0431 29.0372Z" fill="white"/>
</g>
<defs>
<clipPath id="clip0_346_2029">
<rect width="100" height="100" fill="white"/>
</clipPath>
</defs>
</svg>
