<svg width="100" height="100" viewBox="0 0 100 100" fill="none" xmlns="http://www.w3.org/2000/svg">
<path d="M50.3199 12.4922C50.3555 12.4923 50.3939 12.4924 50.435 12.4925L50.8774 12.4938C56.0136 12.5127 82.0456 12.7014 89.0643 14.5883C93.367 15.7424 96.7551 19.1433 97.905 23.4604C98.5381 25.8323 98.9794 28.9847 99.2869 32.227L99.3466 32.8764C99.395 33.4182 99.4397 33.9613 99.4811 34.5024L99.5291 35.1505C99.9399 40.8637 99.9879 46.21 99.9935 47.3797L99.9941 47.5375C99.9941 47.5504 99.9941 47.5715 99.9941 47.5715V47.6601C99.9941 47.6601 99.9941 47.6812 99.9941 47.6941L99.9935 47.8519C99.9877 49.0658 99.9363 54.7777 99.4811 60.7296L99.4298 61.3796L99.3752 62.0303C99.0657 65.6089 98.6014 69.1624 97.905 71.7712C96.7551 76.0883 93.367 79.4901 89.0643 80.6433C81.8117 82.5939 54.2571 82.7304 50.435 82.74L50.1406 82.7405C50.1165 82.7406 50.0953 82.7406 50.077 82.7406L49.9569 82.7407C49.9569 82.7407 49.9294 82.7406 49.9111 82.7406L49.5531 82.74C47.6216 82.7351 39.6288 82.6979 31.2583 82.4104L30.1882 82.3723C30.0096 82.3658 29.831 82.3591 29.6524 82.3522L28.5809 82.3099L27.512 82.2646C20.5776 81.9602 13.966 81.4613 10.9246 80.6433C6.62193 79.4901 3.23382 76.0883 2.08387 71.7712C1.3872 69.1624 0.922758 65.6089 0.613129 62.0303L0.558521 61.3796L0.507223 60.7296C0.06839 54.9941 0.00468861 49.4815 -0.00455838 48.002L-0.00566336 47.7902C-0.00574091 47.7711 -0.00580553 47.7536 -0.00585938 47.7375V47.494C-0.00580553 47.478 -0.00574091 47.4605 -0.00566336 47.4414L-0.00455838 47.2296C0.00381625 45.8897 0.0568556 41.242 0.392771 36.1165L0.436251 35.4735C0.443749 35.366 0.451374 35.2583 0.459129 35.1505L0.507223 34.5024C0.548622 33.9613 0.59336 33.4182 0.641706 32.8764L0.70147 32.227C1.00912 28.9847 1.45053 25.8323 2.08387 23.4604C3.23382 19.1433 6.62193 15.7424 10.9246 14.5883C13.966 13.7707 20.5776 13.2719 27.512 12.9676L28.5809 12.9223L29.6524 12.88C29.831 12.8732 30.0096 12.8665 30.1882 12.8599L31.2583 12.8219C39.0945 12.5529 46.5997 12.5031 49.1107 12.4938L49.5531 12.4925C49.5942 12.4924 49.6326 12.4923 49.6681 12.4922H50.3199ZM39.9943 32.5622V62.6694L65.974 47.6166L39.9943 32.5622Z" fill="white"/>
</svg>
